# xmcd
# 
# Track frame offsets:
#     150
#     18725
#     36222
#     48406
#     75993
#     97326
#     112055
#     125139
#     143449
#     161620
#     182836
#     198478
# 
# Disc length: 3037
# 
# Revision: 3
# Processed by: cddbd v1.5.2PL0 Copyright (c) Steve Scherf et al.
# Submitted via: fre:ac v1.0.27
# 
DISCID=a80bdb0c
DTITLE=Moreland and Arbuckle - 1861
DYEAR=2008
DGENRE=Blues
TTITLE0=Gonna Send Ya Back To Georgia
TTITLE1=Fishin' Hole
TTITLE2=Tell Me Why
TTITLE3=Diamond Ring
TTITLE4=See My Jumper Hangin' Out On The Line
TTITLE5=The Legend
TTITLE6=Never Far Behind
TTITLE7=Teasin' Doney
TTITLE8=Please, Please Mammy
TTITLE9=Pittsburgh In The Morning, Philidelphia At Night
TTITLE10=Wrong I Do
TTITLE11=Wiser Jam
EXTD=
EXTT0=
EXTT1=
EXTT2=
EXTT3=
EXTT4=
EXTT5=
EXTT6=
EXTT7=
EXTT8=
EXTT9=
EXTT10=
EXTT11=
PLAYORDER=
